<svg xmlns="http://www.w3.org/2000/svg" width="24" height="24" viewBox="0 0 24 24" fill="none" stroke="currentColor" stroke-width="1.5" stroke-linecap="round" stroke-linejoin="round" role="img" aria-label="Cat">
  <path d="M5.7 9.1 5 5.8l2.8 1.5a8.5 8.5 0 0 1 8.4 0L19 5.8l-.7 3.3a7 7 0 0 1 1.2 3.9c0 3.8-3.1 6.7-7.5 6.7S4.5 16.8 4.5 13a7 7 0 0 1 1.2-3.9Z"/>
  <path d="M9.6 11.8h.01M14.4 11.8h.01"/>
  <path d="M11.1 14.1c.4.5 1 .8 1.8.8s1.4-.3 1.8-.8"/>
  <path d="M12 12.8v1.3"/>
  <path d="M8.1 13.5 5.2 13M8.1 15.1 5.6 16.2M15.9 13.5l2.9-.5M15.9 15.1l2.5 1.1"/>
</svg>
